<svg width="49" height="48" viewBox="0 0 49 48" fill="none" xmlns="http://www.w3.org/2000/svg">
<path fill-rule="evenodd" clip-rule="evenodd" d="M39.4164 5.57172C39.4358 6.05487 39.4517 6.60401 39.4594 7.20977C40.0621 7.27706 40.6126 7.345 41.1115 7.4115C43.9732 7.79296 46.18 9.96553 46.5905 12.8296C47.0077 15.7408 47.4646 20.3364 47.4646 26.5C47.4646 32.6636 47.0077 37.2592 46.5905 40.1704C46.18 43.0345 43.9732 45.207 41.1115 45.5885C37.9129 46.0149 32.5964 46.5 24.9646 46.5C17.3328 46.5 12.0163 46.0149 8.81767 45.5885C5.95593 45.207 3.74915 43.0345 3.33871 40.1704C2.9215 37.2592 2.46456 32.6636 2.46456 26.5C2.46456 20.3364 2.9215 15.7408 3.33871 12.8296C3.74915 9.96553 5.95593 7.79296 8.81768 7.4115C9.31658 7.345 9.86701 7.27707 10.4697 7.20977C10.4775 6.60401 10.4933 6.05487 10.5128 5.57172C10.5937 3.56157 11.9709 1.70262 14.2611 1.56456C14.7437 1.53547 15.3074 1.51758 15.9646 1.51758C16.6218 1.51758 17.1855 1.53547 17.6681 1.56456C19.9583 1.70262 21.3355 3.56157 21.4164 5.57172C21.4283 5.86881 21.4389 6.19086 21.4471 6.53567C22.5598 6.51265 23.732 6.5 24.9646 6.5C26.1972 6.5 27.3694 6.51265 28.4821 6.53567C28.4903 6.19086 28.5009 5.86881 28.5128 5.57172C28.5937 3.56157 29.9709 1.70262 32.2611 1.56456C32.7437 1.53547 33.3074 1.51758 33.9646 1.51758C34.6218 1.51758 35.1855 1.53547 35.6681 1.56456C37.9583 1.70262 39.3355 3.56157 39.4164 5.57172ZM35.3425 23.8291C36.3527 22.5159 36.107 20.6323 34.7937 19.6221C33.4805 18.6119 31.5969 18.8576 30.5867 20.1709L23.4667 29.427L19.1133 24.959C17.957 23.7723 16.0577 23.7477 14.871 24.9039C13.6843 26.0602 13.6597 27.9595 14.8159 29.1462L21.5851 36.0936C22.1923 36.7168 23.0402 37.0456 23.9088 36.9949C24.7774 36.9441 25.5812 36.5188 26.1117 35.8291L35.3425 23.8291Z" fill="black"/>
</svg>
