<svg width="68" height="50" viewBox="0 0 68 50" fill="none" xmlns="http://www.w3.org/2000/svg">
<path fill-rule="evenodd" clip-rule="evenodd" d="M67.6499 1.65098C67.8718 1.47337 68 1.21115 68 0.934765C68 0.418508 67.5614 0 67.0203 0H1.52087C0.680918 0 0 0.649685 0 1.45111C0 1.88251 0.201168 2.29154 0.548927 2.56723L32.4798 27.8811C33.1757 28.4328 34.1854 28.4305 34.8786 27.8759L67.6499 1.65098ZM3.06762 9.98123C1.84813 9.01445 0 9.84192 0 11.3547V48.2143C0 49.2005 0.837925 50 1.87156 50H66.1284C67.1621 50 68 49.2005 68 48.2143V10.6373C68 9.12063 66.1437 8.29446 64.9258 9.26907L35.0912 33.1439L34.8917 33.3035C34.1985 33.8582 33.1888 33.8604 32.493 33.3088L32.2927 33.15L3.06762 9.98123Z" fill="#4D0072"/>
</svg>
