<svg width="467" height="460" viewBox="0 0 467 460" fill="none" xmlns="http://www.w3.org/2000/svg">
<path d="M233.5 0C104.489 0 0 104.488 0 233.497C0 343.231 75.2963 434.305 176.884 459.98C175.711 457.059 175.135 452.965 175.135 448.891V409.187H145.942C130.184 409.187 115.578 402.192 109.159 389.335C101.568 375.325 100.395 353.724 81.1388 340.29C75.2963 335.62 79.9663 330.95 86.3851 331.527C98.6463 335.024 108.563 343.212 117.903 355.453C127.243 367.714 131.336 370.635 148.844 370.635C157.011 370.635 169.849 370.059 181.534 368.29C187.953 351.935 199.041 337.349 212.475 330.354C134.258 321.014 96.8975 282.482 96.8975 229.94C96.8975 207.167 106.814 185.566 123.169 166.886C117.922 148.783 110.908 111.423 125.514 96.8369C160.549 96.8369 181.554 119.61 186.8 125.433C204.308 119.59 223.584 116.093 243.416 116.093C263.845 116.093 282.525 119.59 300.033 125.433C305.279 119.59 326.304 96.8369 361.319 96.8369C375.329 110.847 368.91 148.783 363.068 166.886C379.423 184.99 388.763 207.167 388.763 229.94C388.763 282.482 351.979 321.014 274.358 329.182C295.959 340.27 311.141 371.788 311.141 395.137V448.315C311.141 450.064 310.565 451.813 310.565 453.561C401.62 422.044 467 335.66 467 233.497C467 104.488 362.511 0 233.5 0Z" fill="black"/>
</svg>
