<svg width="57" height="55" viewBox="0 0 57 55" fill="none" xmlns="http://www.w3.org/2000/svg">
<path d="M56.4561 0H-3.8147e-06V54.9332H56.4561V0Z" fill="#4D0072"/>
<path d="M16.6356 22.515C19.7955 31.1353 23.0669 34.5748 31.3892 38.2382L27.7825 43.3035C18.2259 38.7282 13.466 31.0157 11.2242 24.997L16.6356 22.515Z" fill="white"/>
<path d="M19.2863 10.614C20.9761 10.6074 22.2608 12.0134 22.1456 13.6054C21.9644 16.1108 22.1574 17.9184 22.677 20.159C22.9624 21.3898 22.3167 22.6398 21.2905 23.4449C19.9074 24.5301 18.8507 25.9129 18.0109 27.1032C16.8468 28.7531 12.841 28.6346 11.9551 26.8372C10.1344 23.1433 8.90054 16.3379 11.5592 11.7401C11.9769 11.0179 12.8177 10.6393 13.689 10.6358L19.2863 10.614Z" fill="white"/>
<path d="M44.9359 37.9488C45.1461 36.3654 43.8226 34.9917 42.1352 34.9083C39.4798 34.7769 37.6029 34.3786 35.3102 33.622C34.0507 33.2063 32.6591 33.6614 31.6893 34.5267C30.3822 35.6929 28.8016 36.5173 27.4494 37.1616C25.5751 38.0545 25.2179 41.8245 27.0008 42.8712C30.6647 45.0224 37.67 46.9976 42.8229 45.0579C43.6323 44.7532 44.1314 44.0104 44.2398 43.1939L44.9359 37.9488Z" fill="white"/>
</svg>
